<svg xmlns="http://www.w3.org/2000/svg" width="100" height="100" viewBox="0 0 100 100"><metadata><rdf:RDF xmlns:rdf="http://www.w3.org/1999/02/22-rdf-syntax-ns#" xmlns:dc="http://purl.org/dc/elements/1.1/"><rdf:Description><dc:creator>RealFaviconGenerator</dc:creator><dc:source>https://realfavicongenerator.net</dc:source></rdf:Description></rdf:RDF></metadata><g transform="translate(-2121 -316)"><rect width="100" height="100" rx="21" transform="translate(2121 316)" fill="#fff"></rect><g transform="translate(-0.989 -0.116)"><path d="M4.307,0V-5.5A32.157,32.157,0,0,1,5.742-15.647a25.485,25.485,0,0,1,4.522-8.087q3.086-3.78,10.743-9.714a79.663,79.663,0,0,0,7.25-6.2,15.53,15.53,0,0,0,2.68-3.661,8.44,8.44,0,0,0,.885-3.828q0-6.843-8.23-6.843-8.374,0-15.839,6.077V-64.6A47.993,47.993,0,0,1,18.4-68.619a44.868,44.868,0,0,1,10.168-1.148q11.2,0,17.322,5.359t6.125,15.025A23.423,23.423,0,0,1,48.809-36.8Q45.6-31.63,36.894-26.031a78.832,78.832,0,0,0-8.829,6.292q-2.177,1.986-2.225,3.374h26.8V0Z" transform="translate(2126 401)" fill="#36bf64"></path><path d="M25.835,0V-10.659a3.4,3.4,0,0,0-.479-2,1.8,1.8,0,0,0-1.563-.659,1.952,1.952,0,0,0-1.662.8,3.679,3.679,0,0,0-.6,2.231V0h-7.7V-10.479q0-2.836-1.933-2.836a2.046,2.046,0,0,0-1.771.822,3.974,3.974,0,0,0-.6,2.358V0h-7.7V-18.5h7.7v2.927h.072a5.965,5.965,0,0,1,1.382-1.581,8.111,8.111,0,0,1,2.141-1.3,6.65,6.65,0,0,1,2.583-.5,6.539,6.539,0,0,1,3.315.777,6.024,6.024,0,0,1,2.249,2.457,6.593,6.593,0,0,1,2.6-2.394,7.754,7.754,0,0,1,3.613-.84,5.437,5.437,0,0,1,4.462,1.9,8.447,8.447,0,0,1,1.554,5.474V0ZM49.357,0V-2.15h-.072a6.351,6.351,0,0,1-2.4,1.906,6.847,6.847,0,0,1-2.927.7A7.529,7.529,0,0,1,39.782-.714a7.077,7.077,0,0,1-2.7-3.261,12.551,12.551,0,0,1-.894-4.95,12.179,12.179,0,0,1,1.066-5.221,8.344,8.344,0,0,1,3-3.541,7.748,7.748,0,0,1,4.336-1.265,6.563,6.563,0,0,1,2.1.325,5.694,5.694,0,0,1,1.68.876,2.616,2.616,0,0,1,.912,1.093h.072V-27.389h7.7V0Zm.163-9.81a4.059,4.059,0,0,0-.732-2.583,2.393,2.393,0,0,0-1.978-.921,2.373,2.373,0,0,0-2.032,1.147,5.33,5.33,0,0,0-.786,3.062q0,3.92,2.71,3.92a2.411,2.411,0,0,0,2.051-1.057,5.2,5.2,0,0,0,.768-3.08Z" transform="translate(2156 371)" fill="#24292f"></path><path d="M19.233-14.077a6.832,6.832,0,0,1-1.091,3.823,7.111,7.111,0,0,1-3.113,2.585,11.3,11.3,0,0,1-4.7.916H8.394V0H2.065V-21.006h8.613q4.438,0,6.5,1.685T19.233-14.077Zm-6.694.22a2.461,2.461,0,0,0-.747-1.948,3.228,3.228,0,0,0-2.2-.659h-1.2v5.186H9.814Q12.539-11.279,12.539-13.857Zm29,3.091A11.59,11.59,0,0,1,40.2-5.12a9.237,9.237,0,0,1-3.831,3.787A11.982,11.982,0,0,1,30.63,0H21.738V-21.006h8.7Q41.543-21.006,41.543-10.767Zm-6.724.059a6.045,6.045,0,0,0-.623-2.769,4.5,4.5,0,0,0-1.78-1.9,5.319,5.319,0,0,0-2.725-.674H28.066v11.1h1.772a4.561,4.561,0,0,0,3.625-1.56A6.178,6.178,0,0,0,34.819-10.708ZM50.83-16.055v3.779h6.24v4.951H50.83V0H44.5V-21.006H57.671v4.951Z" transform="translate(2156 401)" fill="#24292f"></path></g></g></svg>