<svg xmlns="http://www.w3.org/2000/svg" width="300" height="87.038" viewBox="0 0 300 87.038"><g transform="translate(-2050.052 -331.232)"><path d="M4.307,17.271V10.406A40.118,40.118,0,0,1,6.1-2.25a31.794,31.794,0,0,1,5.641-10.089q3.85-4.716,13.4-12.119a99.384,99.384,0,0,0,9.044-7.731,19.374,19.374,0,0,0,3.343-4.567,10.53,10.53,0,0,0,1.1-4.776q0-8.537-10.268-8.537-10.447,0-19.76,7.582V-63.32a59.873,59.873,0,0,1,13.283-5.015,55.975,55.975,0,0,1,12.686-1.433q13.969,0,21.61,6.686t7.641,18.745q0,9.253-4,15.7T44.96-15.2a98.347,98.347,0,0,0-11.014,7.85Q31.23-4.877,31.17-3.146H64.6V17.271Z" transform="translate(2145.867 401)" fill="#36bf64"/><path d="M47.609,24.857V4.524A6.486,6.486,0,0,0,46.7.716,3.434,3.434,0,0,0,43.715-.542,3.723,3.723,0,0,0,40.545.991a7.018,7.018,0,0,0-1.137,4.256V24.857H24.726V4.869q0-5.411-3.688-5.411a3.9,3.9,0,0,0-3.377,1.568,7.581,7.581,0,0,0-1.137,4.5V24.857H1.843v-35.29H16.524V-4.85h.138A11.378,11.378,0,0,1,19.3-7.865a15.473,15.473,0,0,1,4.084-2.481,12.685,12.685,0,0,1,4.928-.948,12.473,12.473,0,0,1,6.324,1.482,11.492,11.492,0,0,1,4.291,4.687,12.577,12.577,0,0,1,4.963-4.566,14.79,14.79,0,0,1,6.893-1.6q5.549,0,8.512,3.619T62.256,2.766V24.857Zm44.871,0v-4.1h-.138a12.114,12.114,0,0,1-4.584,3.636,13.06,13.06,0,0,1-5.583,1.327A14.361,14.361,0,0,1,74.215,23.5a13.5,13.5,0,0,1-5.152-6.221,23.942,23.942,0,0,1-1.706-9.443,23.233,23.233,0,0,1,2.033-9.96,15.917,15.917,0,0,1,5.721-6.755,14.779,14.779,0,0,1,8.271-2.412,12.519,12.519,0,0,1,4.015.62A10.862,10.862,0,0,1,90.6-9a4.99,4.99,0,0,1,1.74,2.085h.138V-27.389h14.681V24.857Zm.31-18.713a7.742,7.742,0,0,0-1.4-4.928,4.711,4.711,0,0,0-7.651.431,10.168,10.168,0,0,0-1.5,5.841q0,7.478,5.169,7.478a4.6,4.6,0,0,0,3.912-2.016A9.922,9.922,0,0,0,92.79,7.074Z" transform="translate(2048.209 392.552)" fill="#24292f"/><path d="M50.169-1.592A19.142,19.142,0,0,1,47.111,9.12a19.925,19.925,0,0,1-8.722,7.244A31.661,31.661,0,0,1,25.214,18.93H19.8V37.851H2.065V-21.006H26.2q12.436,0,18.2,4.72T50.169-1.592ZM31.412-.977a6.9,6.9,0,0,0-2.093-5.459q-2.093-1.847-6.157-1.847H19.8V6.247h3.981Q31.412,6.247,31.412-.977Zm81.266,8.66a32.473,32.473,0,0,1-3.755,15.822A25.88,25.88,0,0,1,98.19,34.116,33.571,33.571,0,0,1,82.1,37.851H57.187V-21.006h24.38Q112.678-21.006,112.678,7.684Zm-18.839.164A16.939,16.939,0,0,0,92.095.091a12.619,12.619,0,0,0-4.987-5.336,14.9,14.9,0,0,0-7.634-1.888H74.918V23.978h4.966a12.779,12.779,0,0,0,10.158-4.371Q93.839,15.236,93.839,7.848ZM138.7-7.133V3.456h17.485V17.329H138.7V37.851H120.969V-21.006h36.9V-7.133Z" transform="translate(2192.184 380.42)" fill="#24292f"/></g></svg>